# xmcd CD database file
#
# Track frame offsets:
#	150
#	15017
#	26640
#	40350
#	51912
#	67045
#	82240
#	92445
#	104137
#	117427
#	130850
#	143822
#	157337
#	170802
#
# Disc length: 2566 seconds
#
# Revision: 0
# Processed by: cddbd v1.4PL0 Copyright (c) Steve Scherf et al.
# Submitted via: CDex 1.50Beta5
#
DISCID=c90a040e
DTITLE=Various Artist - Nat King Cole - I Giganti Jazz and Pop
DYEAR=2000
DGENRE=Jazz
TTITLE0=Embraceable you
TTITLE1=Lester leaps in
TTITLE2=Don't blame me
TTITLE3=On the sunny side of the street
TTITLE4=Body and soul
TTITLE5=The man I love
TTITLE6=Baby, won't you please come home
TTITLE7=Honeysuckle Rose
TTITLE8=It's only a paper moon
TTITLE9=Hit the jive jack
TTITLE10=Besame mucho
TTITLE11=Sweet Lorraine
TTITLE12=What is this thing called love
TTITLE13=Indiana
EXTD=YEAR: 2000
EXTT0=
EXTT1=
EXTT2=
EXTT3=
EXTT4=
EXTT5=
EXTT6=
EXTT7=
EXTT8=
EXTT9=
EXTT10=
EXTT11=
EXTT12=
EXTT13=
PLAYORDER=
